<svg xmlns="http://www.w3.org/2000/svg" xmlns:xlink="http://www.w3.org/1999/xlink" viewBox="0 0 251.87 84.02"><defs><style>.cls-1{fill:url(#linear-gradient);}.cls-2{fill:#231f20;}</style><linearGradient id="linear-gradient" x1="22.95" y1="84.02" x2="22.95" gradientUnits="userSpaceOnUse"><stop offset="0" stop-color="#006847"/><stop offset="1" stop-color="#dee22b"/></linearGradient></defs><title>Zentavos_logo_v2_gradient_color</title><g id="Layer_2" data-name="Layer 2"><g id="Layer_1-2" data-name="Layer 1"><path class="cls-1" d="M45.91,54.33a4.84,4.84,0,0,0-2-3.9l-.3-.2A4.74,4.74,0,0,0,41,49.46a4.8,4.8,0,0,0-3.91,2l-.27.41a17.29,17.29,0,0,1-3.12,3.38,17,17,0,0,1-21.59,0l10.79-7.56,4.28-3,4.26-3,7.46-5.22,4.35-3,.3-.2a4.84,4.84,0,0,0,2-3.9,4.7,4.7,0,0,0-.68-2.47l-.22-.3a4.44,4.44,0,0,0-.27-.38v0a25.58,25.58,0,0,0-3-3.34,26.68,26.68,0,0,0-36.87,0,25.42,25.42,0,0,0-3,3.33h0l-.29.39c-.09.12-.18.24-.26.37A.56.56,0,0,0,1,27a4.79,4.79,0,0,0-.59,2.32A4.87,4.87,0,0,0,5.23,34.2a4.79,4.79,0,0,0,4-2.09,34.15,34.15,0,0,1,3.54-3.52,17,17,0,0,1,20.39,0L23,35.73l-4.27,3-4.27,3-7.71,5.4L2.26,50.23l-.3.2a4.84,4.84,0,0,0-2,3.9,4.75,4.75,0,0,0,.89,2.78l-.05,0A26.13,26.13,0,0,0,4,61a26.69,26.69,0,0,0,37.93,0,27.64,27.64,0,0,0,3.16-3.82h0A4.83,4.83,0,0,0,45.91,54.33Zm-22.75,20A4.87,4.87,0,1,0,28,79.15,4.87,4.87,0,0,0,23.16,74.29ZM23,0a4.87,4.87,0,1,0,4.87,4.87A4.87,4.87,0,0,0,23,0Z"/><path class="cls-2" d="M66.88,57.58q-7.84,0-12-4.1t-4.22-12q0-7.89,3.77-12t10.88-4.13q13.27,0,13.63,15.07a2.88,2.88,0,0,1-1,2.39,3.67,3.67,0,0,1-2.51,1H59c-.36,0-.5.18-.41.54q.4,4,2.66,5.83t6.54,1.82a22.8,22.8,0,0,0,6-.9,2.27,2.27,0,0,1,2,.36,2.1,2.1,0,0,1,.92,1.79,3.92,3.92,0,0,1-.8,2.43,3.39,3.39,0,0,1-2.13,1.28A32.85,32.85,0,0,1,66.88,57.58Zm-1.5-26.73a6.19,6.19,0,0,0-4.69,1.71c-1.1,1.13-1.79,3-2.06,5.47a.42.42,0,0,0,.47.48H70.82A.42.42,0,0,0,71.3,38Q71.06,30.85,65.38,30.85Z"/><path class="cls-2" d="M85.17,57a3.49,3.49,0,0,1-3.41-3.41V29.3a3.49,3.49,0,0,1,3.41-3.41H86a3.28,3.28,0,0,1,2.42,1,3.48,3.48,0,0,1,1,2.42v.42a.05.05,0,0,0,.06.06.17.17,0,0,0,.12-.06,12.54,12.54,0,0,1,9.5-4.43q5.45,0,7.93,3.08t2.48,10.26V53.57A3.49,3.49,0,0,1,106.1,57h-1a3.17,3.17,0,0,1-2.36-1,3.29,3.29,0,0,1-1-2.39V39.22c0-3-.38-5-1.16-6.13s-2.16-1.64-4.16-1.64a6.35,6.35,0,0,0-4.54,2.09A6.27,6.27,0,0,0,89.78,38V53.57A3.49,3.49,0,0,1,86.37,57Z"/><path class="cls-2" d="M114.05,32.88a2.7,2.7,0,0,1-2-.86,2.87,2.87,0,0,1-.84-2.06,2.78,2.78,0,0,1,.84-2,2.75,2.75,0,0,1,2-.83h2.87a.48.48,0,0,0,.54-.54V19.13a3.33,3.33,0,0,1,1-2.39,3.15,3.15,0,0,1,2.36-1H122a3.47,3.47,0,0,1,3.41,3.41v7.42a.48.48,0,0,0,.54.54h6.82a2.86,2.86,0,0,1,2.06.83,2.73,2.73,0,0,1,.87,2,3,3,0,0,1-2.93,2.92H126c-.36,0-.54.17-.54.48V45.44c0,2.59.28,4.27.84,5s1.71,1.14,3.47,1.14a14.21,14.21,0,0,0,2.15-.12A2.91,2.91,0,0,1,134,52a2.1,2.1,0,0,1,.9,1.79,3.57,3.57,0,0,1-.87,2.36,3,3,0,0,1-2.12,1.17c-1.76.16-3.07.24-4,.24q-5.79,0-8.13-2.48t-2.33-8.88V33.36c0-.31-.18-.48-.54-.48Z"/><path class="cls-2" d="M147.65,57.58a9.11,9.11,0,0,1-6.72-2.66A9.34,9.34,0,0,1,138.27,48a9.36,9.36,0,0,1,4-8.07q4-2.86,12.17-2.87h2.45a.48.48,0,0,0,.54-.54v-.48c0-1.83-.44-3.11-1.32-3.85s-2.43-1.11-4.66-1.11a36,36,0,0,0-8.49,1.26,2.12,2.12,0,0,1-2-.39,2.19,2.19,0,0,1-.9-1.83,4,4,0,0,1,.84-2.48,3.37,3.37,0,0,1,2.15-1.34,39.13,39.13,0,0,1,8.55-1q7.65,0,10.7,2.75t3,9.63v15.9a3.29,3.29,0,0,1-1,2.39A3.15,3.15,0,0,1,162,57h-.65a3.4,3.4,0,0,1-2.46-1,3.46,3.46,0,0,1-1.07-2.42v-.83a.05.05,0,0,0-.06-.06q-.12,0-.12.06A11.84,11.84,0,0,1,147.65,57.58ZM154.41,42q-8.55,0-8.55,5.27A4.36,4.36,0,0,0,147,50.4a3.67,3.67,0,0,0,2.84,1.2,7.41,7.41,0,0,0,5.5-2.12,8,8,0,0,0,2.09-5.83V42.57a.48.48,0,0,0-.54-.54Z"/><path class="cls-2" d="M174.62,53.75l-8-24.63a2.25,2.25,0,0,1,.33-2.21,2.34,2.34,0,0,1,2-1h1.79a4.25,4.25,0,0,1,2.69.93A4.16,4.16,0,0,1,175,29.18l6,23.14a.06.06,0,1,0,.12,0l6-23.14a4.15,4.15,0,0,1,1.55-2.36,4.27,4.27,0,0,1,2.69-.93h1.56a2.36,2.36,0,0,1,2,1,2.25,2.25,0,0,1,.33,2.21L187.3,53.75a4.27,4.27,0,0,1-1.65,2.33,4.58,4.58,0,0,1-2.78.9H179a4.51,4.51,0,0,1-2.72-.9A4.63,4.63,0,0,1,174.62,53.75Z"/><path class="cls-2" d="M221.71,53.36c-2.66,2.81-6.37,4.22-11.16,4.22s-8.5-1.41-11.15-4.22-4-6.78-4-11.93,1.32-9.11,4-11.92,6.37-4.22,11.15-4.22,8.5,1.41,11.16,4.22,4,6.78,4,11.92S224.36,50.55,221.71,53.36Zm-5.87-19.79a6.88,6.88,0,0,0-10.58,0q-1.75,2.49-1.76,7.86t1.76,7.87a6.88,6.88,0,0,0,10.58,0q1.77-2.49,1.77-7.87T215.84,33.57Z"/><path class="cls-2" d="M239,44.42q-6.27-1.37-8.93-3.76a8,8,0,0,1-2.67-6.22,8,8,0,0,1,3.2-6.73c2.14-1.61,5.29-2.42,9.48-2.42a42.88,42.88,0,0,1,7.83.72A3.39,3.39,0,0,1,250,27.29a3.92,3.92,0,0,1,.8,2.43,2.2,2.2,0,0,1-.89,1.82,2.25,2.25,0,0,1-2,.39,28.85,28.85,0,0,0-7.05-.84q-5.38,0-5.38,3a3.11,3.11,0,0,0,1,2.39,7.47,7.47,0,0,0,3.47,1.5q6.87,1.37,9.42,3.7t2.54,6.82a7.87,7.87,0,0,1-3.23,6.7q-3.22,2.39-9.39,2.39a36.56,36.56,0,0,1-8.19-1,3.62,3.62,0,0,1-2.15-1.4,4.1,4.1,0,0,1-.84-2.54,2,2,0,0,1,.93-1.74,2.36,2.36,0,0,1,2-.3,27.49,27.49,0,0,0,7.36,1.08c3.62,0,5.44-1.08,5.44-3.23A3,3,0,0,0,242.75,46,10,10,0,0,0,239,44.42Z"/></g></g></svg>